<?xml version="1.0" encoding="UTF-8"?>
<svg width="1200pt" height="1200pt" version="1.1" viewBox="0 0 1200 1200" xmlns="http://www.w3.org/2000/svg">
 <path d="m784.89 600 352.92-328.57c1.4531 5.3438 2.1875 10.863 2.1836 16.402v624.34c0.003906 5.5391-0.73047 11.059-2.1836 16.402zm-688.79 369.12c8.4141 4.0352 17.629 6.1289 26.961 6.1172h953.86c10.914 0.003907 21.637-2.8555 31.102-8.2891l-358.63-333.9-65.062 60.555c-22.316 20.309-51.562 31.301-81.73 30.719-30.324-0.09375-59.523-11.473-81.914-31.922l-63.684-59.305zm-32.508-702.35c-2.4062 6.7578-3.625 13.883-3.6016 21.059v624.34c-0.023438 7.1758 1.1953 14.301 3.6016 21.059l357.91-333.23zm1013.3-42h-953.81c-9.332-0.011719-18.547 2.082-26.961 6.1172l377.23 351.27 0.15625 0.14453 80.16 74.641c13.496 12.273 31.078 19.082 49.32 19.102 17.82 0.44922 35.141-5.9336 48.406-17.844l81.602-75.91 0.12109-0.12109 374.93-349.13c-9.4648-5.4258-20.191-8.2812-31.102-8.2773z" fill-rule="evenodd"/>
</svg>
